<?xml version="1.0" encoding="utf-8"?>
<!-- Generator: Adobe Illustrator 12.0.0, SVG Export Plug-In . SVG Version: 6.00 Build 51448)  -->
<!DOCTYPE svg PUBLIC "-//W3C//DTD SVG 1.1//EN" "http://www.w3.org/Graphics/SVG/1.1/DTD/svg11.dtd" [
	<!ENTITY ns_svg "http://www.w3.org/2000/svg">
	<!ENTITY ns_xlink "http://www.w3.org/1999/xlink">
]>
<svg  version="1.1" id="Layer_1" xmlns="&ns_svg;" xmlns:xlink="&ns_xlink;" width="393.769" height="446.396"
	 viewBox="0 0 393.769 446.396" overflow="visible" enable-background="new 0 0 393.769 446.396" xml:space="preserve">
<path fill="#D6A477" stroke="#6C5635" d="M2.229,82.035h40.333c0,0,15.167-43.667,51.417-18.417l3.583,1.75l-1.314-1.855
	c0,0-6.267-6.587-36.482-18.532c0,0,9.402-11.227,42.069-9.073c0,0-11.828-13.529-34.728-23.254c0,0,14.017-5.579,32.769-4.097
	c0,0,23.346,0.056,17.766,30.021c0,0,6.227-8.742,4.672-16.52c0,0-3.329-10.721-16.328-21.298c0,0,29.96,4.399,35.878,12.639
	c0,0,3.781,2.819-1.462,26.414c0,0-0.917,9.907,0.994,18.981c0,0,13.5,1.575,21.5,6.908c0,0,19.333-7.667,29.333-5.667
	c0,0,18.334-19.667,32.334-5c0,0,8.999,34-18.334,42c0,0,2.334,5.666,17.334,7.333l-3.667,2.667c0,0,38.333,16.667,12,19
	c0,0,24.001,30,1.667,16c0,0,5.666,51.333-12.667,13c0,0-16,38-16,13.667l-24.667,10.333c0,0-15.333,18.333,6.667,11.667
	c0,0,32.667-4.667,13.667,5.667c0,0,75.666,9.666,42.666,30l-21.666,17c0,0,12.999,14.667,29.666,16.667
	c0,0,10.208-8.541,17.875-35.875c0,0-0.583-53.584-17.833-79.084c0,0,78.75-56.25,138.25-46c0,0,9.5,9.25-1.75,48
	c0,0-49,107.75-109.5,144.5c0,0-3.333,2.25-3,4.75c0,0,8.666,45.833-42.667,57.333l-3.708,0.376l-1.667,9.667l-18.333-18.333
	l-0.333,5l-17-19.667l-49.667,19.667l-0.333,9.666l-10-6.666l2.333,15l-13-14.667l-1.667,9c0,0-35-34-35.667-46
	c0,0-8.333-29.001,9.333-36.667l1.375-0.542c-0.624,0.167,14.625-2.834,21.333,3c0,0,0-16.332-8-30.666c0,0-25,31.333-9-20.667
	c0,0-37.333,17,0-20.333c0,0-29.333,8.667-18-3c0,0-37.333,14-22.667,15c0,0,8.333,11.666-7.667,5.666c0,0,4,12-8,8
	c0,0,7.667,14.334-5.333,15.334c0,0-22-16-19-28.667c0,0-2-13,18-18.667c0,0,33.333-10.667,32.667-13.667
	c0,0-10.667-11.667-18.667-9l-0.792,0.125c0,0-9.208,31.209-19.208-23.791c0,0-17.334,52.666-15.667-6.667c0,0-12,20-6-9l1-1.333
	c0,0-4.333-1.667,22-26c0,0-39.375,2.542-29.042-32.458"/>
<path fill="none" stroke="#000000" d="M272.563,316.702"/>
<path fill="none" stroke="#000000" d="M272.563,316.702"/>
<path stroke="#000000" d="M52.021,121.326c0,0,2.25-8.75,15.5-0.5l11,7.75c0,0,8.75-3.75,11.25,6.5c0,0,7,2.25,5.25-3.5
	c0,0,5.25-3.25,4.25,4.75c0,0,0,4.75-8.25,3.75c0,0-2,10.25-10.25,4.5c0,0-6.75-2.5-4.5-12.25l-16.5-10.75L52.021,121.326z"/>
<polygon fill="#FFFFFF" points="82.021,138.826 82.271,132.326 86.271,137.576 "/>
<path stroke="#000000" d="M143.271,124.076c0,0,6.25-18,24-23.5c0,0,3.25-5.75-8.75-2c0,0-10.25,3.5-19.75,24.75
	c0,0-6.75,0.5-6.75,7.75c0,0-9.75,1-4.5-8.25l1.75-0.75c0,0-5.25-6-7.25,2.5c0,0-3,9.5,10.25,11.75c0,0,4.5,10.25,16.75,4
	c0,0,5.75-12.5-5.75-15.5V124.076z"/>
<polygon fill="#FFFFFF" points="137.271,131.576 142.521,127.076 142.771,134.326 "/>
<path fill="#ED1C24" d="M121.271,150.326c0,0,7.5-6.5,4.5,3.75c0,0-6,8.5-9.75,8.25c0,0-11.5-1.5-12.75-5.75s-2.5-9.75,5.25-2.5
	c0,0,8,8.25,13-3"/>
<path fill="#FFFFFF" d="M105.021,176.326c0,0,2.75,22,19.5,21.25c0,0,5.5-2.25,5.75-22.5c0,0-8.5-0.25-13.75-8.25
	c0,0-1.75,7.25-10.25,8.75L105.021,176.326z"/>
<path d="M68.021,160.826c-4.25,3-20.75,7-1.75-4.75c0,0,18.75-4.5,28.5,0.5c0,0-2.75,15.25,7.75,17c0,0,7.25,4,12.25-10.75l4-0.5
	c0,0,2.75,14.5,16,7.25c0,0,3.75-3.25,10-3.25l0.25-8.5c0,0-11.25-6.5-1.25-10.75c0,0,28.25-13.25,42.5-7.75c0,0,7.25,8.5-2,3.25
	c0,0-10.25-2.5-38.5,8.75c0,0,7,10,2.5,18.75l-14.25,5c0,0-12.25,4-16.75-6.25c0,0-7.5,10.75-18,8.5c0,0-11.5-6.25-8.5-17.5
	C90.771,159.826,72.271,157.826,68.021,160.826z"/>
<path fill="#EC008C" d="M183.271,38.326"/>
<path fill="#EC008C" d="M5.271,96.16c0,0,11,9,20,8.667c0,0,7.667,2,7,7.333c0,0-25,3-27.667-14L5.271,96.16z"/>
<path fill="#EC008C" d="M186.271,77.076c0,0,26-4.75,36.25-15c0,0,6.25,26-19.75,34c0,0-17-2.75-16.5-17.5V77.076z"/>
<path fill="#F7931D" stroke="#ED1C24" d="M76.604,254.826c2,24.333-6.667,20.667-6.667,20.667c-5,2.333-5-17-5-17
	c-1.333,24-7,19.333-7,19.333c-6.333,2.333-6-14-6-14c-3,32-14.667,9-14.667,9l-0.333-24.333h0.667c10.333,0,0.667-14,0.667-14v-3
	c12.333,6,9.333-7.667,9.333-7.667l16.667,2.334c19,5.334,18.667,18.666,18.667,18.666c4.667,21.666-1,19.667-1,19.667
	c-2.667,2-5.333-10.667-5.333-10.667"/>
<path fill="#F7931D" stroke="#ED1C24" d="M147.938,269.826c0,0,6.667-13.667,8-11c0,0-4.333,15.334,4,18.334h5.667
	c0,0,2-15.334,7-15.667c0,0-6,18.334,1,21.667c0,0,11.334,4.332,15-1.334c0,0,1.666-3-1.667-8c0,0,5.667-10.333,10.667-11.333
	c0,0,3-7.001,1-17.667c0,0-3.668-2-10.334,2.667c0,0,1.667-12.334-7.333-5.667l-4-4c0,0-6,6.001-17,0.334
	c0,0-16.667,12.333-21.333,22.333c0,0-0.333,8.333,9,10.333"/>
<path fill="#F7931D" stroke="#ED1C24" d="M224.604,388.493l12-14.333c0,0-1-5-6.667-10l-2.167-2.334l-0.542,1.876l-18.333-18.333
	l-0.333,5l-33.792-38.543c0,0-17.25-4.75-23.25,7.25c0,0,1.5,5.25,12.5,10.25c0,0,5,6-4.25,1.5c0,0-14-7.5-12-15.25
	c0,0-4.25-4-10.25,0.5c0,0-8.25,5.25,0,11l14.25,10.25c0,0,6.5,6.75-3.25,2l-16-12c0,0-8.25,0.75-4.5,8.5c0,0,12.75,12.5,20,15.75
	L224.604,388.493z"/>
<path fill="#F7931D" stroke="#ED1C24" d="M35.938,372.159c7.333-0.334,18.667,6.334,18.667,6.334c5.333-1.666,21,2.333,21,2.333
	c0,5.667,57.333,13.667,57.333,13.667c36.333-10.666,5-29,5-29l-6.375-12.124l2.042,14.124l-12.708-13.791l-1.667,9l-4.291-4.209
	l-0.667,9.333c-38.667-35.667-52.333-32-52.333-32c-9.333,1.667-8,8.333-8,8.333l7.667,3.334c6.333,3.667,0.667,4.666,0.667,4.666
	l-11.333-6.666c-2-1-2-6-2-6c-3.667-2-9,5-9,5c-9,6.334-3.667,10.333-3.667,10.333c1-2,15.333,7,15.333,7c7,7-1.667,3-1.667,3
	l-9.333-5h-1.583c-9.383,1.877-4.082,10.224-3.417,11.333L35.938,372.159z"/>
<path fill="none" stroke="#000000" d="M254.938,259.159"/>
<path fill="none" stroke="#000000" d="M278.938,290.492"/>
<path fill="none" stroke="#000000" d="M286.604,161.493"/>
<g>
	<g>
		<path d="M346.604,144.826l-14.666,2l-2-9.667c0,0-4.334-4-5.334,1.667l2.334,9.667c0,0-27.333,7-40,14l-1.667-7.333
			c0,0-5.334-6.333-5.667,2l1.667,9l-7,3.667c0,0-6.999,4.333,0.667,5l7.666-3.333c0,0,3,13.333,1.667,26l-8.333,5
			c0,0-5.667,6.333,2.333,4l6-3c0,0-5.334,38.001-12.667,48.667l-1.333,3.166l5,1c0,0,13-22,13.5-54c0,0,18.5-11,32.5-13
			c0,0-9.5,35-33,67l1,4c0,0,36-49,38.5-72.5c0,0,11.833-5.666,15.833-3.333c0,0,9.333-6-13-2.667l1-29.333
			c0,0,6.668-5.334,22.334-3.667C353.938,148.826,361.27,142.826,346.604,144.826z M323.604,183.826c0,0-19,3.334-34,12.667
			c0,0,1.668-17-0.666-27.333l-0.334-1.333c0,0,8.334-7,37.334-13.333v-0.667C325.938,153.826,328.604,162.492,323.604,183.826z"/>
	</g>
</g>
<g>
	<g>
		<path fill="#2E3192" d="M266.271,42.16c-0.666-23.667-26.334-16.667-26.334-16.667l0.334,48.667h8
			C266.604,74.16,266.271,42.16,266.271,42.16z M252.937,57.493l-1.666,1v-18C251.271,40.493,260.27,45.159,252.937,57.493z"/>
	</g>
</g>
<polygon fill="#2E3192" points="333.937,75.993 333.937,23.326 345.604,23.326 353.604,44.993 353.604,23.993 365.604,23.993 
	364.437,73.326 352.604,74.493 346.271,55.16 345.271,75.993 "/>
<g>
	<g>
		<path fill="#2E3192" d="M318.937,23.16l-5,21l-4.666-20.333h-12.667l-1,39l-7.333-38.667h-13.667l-9.667,49l13.417,0.417l0.875-6
			h5.75v8.125l12.5-2.125v2.375h10.792V60.16l2,11.667h5.666l2.667-15l0.667,19.333h12l1-53H318.937z M278.803,54.16l2.176-9.563
			l2.176,9.563H278.803z"/>
	</g>
</g>
<path fill="#2E3192" d="M105.604,414.159v-12.333c0,0-29.333-6.333-30,21c0,0-4.333,26.001,29,19.667v-13.334
	c0,0-14.667,6.333-14.667-6c0,0-0.833-9.666,13.667-9.333L105.604,414.159z"/>
<g>
	<g>
		<path fill="#2E3192" d="M147.938,441.826l-12.5-40.5h-18l-11,41.5l17,2v-6.5h9.25v5.5L147.938,441.826z M124.136,429.326
			l3.676-12.445l3.676,12.445H124.136z"/>
	</g>
</g>
<polygon fill="#2E3192" points="149.688,445.076 149.688,401.826 164.688,401.826 176.688,424.826 176.688,401.576 190.938,401.576 
	189.438,443.826 172.688,445.076 164.438,422.826 164.438,444.826 "/>
<path fill="#2E3192" d="M223.104,415.409v-12.333c0,0-29.333-6.333-30,21c0,0-4.333,26.001,29,19.667v-13.334
	c0,0-14.666,6.333-14.666-6c0,0-0.833-9.666,13.667-9.333L223.104,415.409z"/>
<polygon fill="#2E3192" points="226.938,401.326 255.188,401.326 255.188,413.076 241.688,413.076 241.688,417.826 249.938,417.826 
	249.938,426.826 240.688,426.826 240.688,432.076 252.188,432.076 252.188,445.326 226.188,445.326 "/>
<g>
	<g>
		<path fill="#2E3192" d="M285.438,430.076c11.75-11.5,6-20,6-20c-3.75-15.5-34.5-6.75-34.5-6.75v42.25l13.5-0.75v-12.25h3.5
			l5.5,13.25l13.75-2.75L285.438,430.076z M272.688,422.826l-2,0.25v-11.5c0,0,7-1.5,8,4
			C278.688,415.576,280.188,422.826,272.688,422.826z"/>
	</g>
</g>
<path d="M178.021,236.576c0-2.75,15.25-7.75,15.25-7.75c8-20,28.25-15.5,28.25-15.5l-0.75,3c-21.25,0.25-23.5,14.75-23.5,14.75
	c-1.75-1.75-18.75,8-18.75,8L178.021,236.576z"/>
<path d="M199.604,251.826l3.666-1c0,0,5.333-1.333,7-4.333c0,0,2.666,1.333,4-2.667l6-1l-0.666,7.667l-7,0.333
	c0,0-2.667,3.666-6.667,2l-5.333,2.667L199.604,251.826z"/>
<path d="M114.271,172.16l2-2.667c0,0,2,21,8,26c0,0-10-3.667-10.333-21.667L114.271,172.16z"/>
</svg>
